<?xml version="1.0" encoding="utf-8"?>
<svg version="1.1" xmlns="http://www.w3.org/2000/svg" xmlns:xlink="http://www.w3.org/1999/xlink" x="0px" y="0px"
	 viewBox="0 0 412 507.8" enable-background="new 0 0 412 507.8" xml:space="preserve">
	<g id="XMLID_2_">
		<polygon id="XMLID_3_" fill="#B93435" points="0,211.1 0,507.8 230,507.8 230,353 139.2,296.3 140.5,181.6"/>
		<polygon id="XMLID_4_" fill="#AA4864" points="0,211.1 62,166 195,133 140.6,181.6"/>
		<polygon id="XMLID_5_" fill="#B93435" points="60.2,71.9 62,166 195,133 196.8,31.7"/>
		<polygon id="XMLID_6_" fill="#AA4864" points="98.2,43.7 238.3,0 196.8,31.7 60.2,71.9"/>
		<polygon id="XMLID_7_" fill="#432130" points="139.2,296.3 325.3,316.9 324,211.1 276.5,146.4 277.7,49.1 238.2,0 196.8,31.7
			195,133 140.2,181.6"/>
		<polygon id="XMLID_8_" fill="#6E385B" points="230,353 412,369.1 325.3,316.9 139.2,296.3"/>
		<polygon id="XMLID_9_" fill="#432130" points="230,507.9 412,508.3 412,369.1 230,353"/>
	</g>
</svg>
